<?xml version="1.0" encoding="UTF-8"?>
<svg version="1.1" xmlns="http://www.w3.org/2000/svg" width="273" height="197">
<path d="M0 0 C90.09 0 180.18 0 273 0 C273 65.01 273 130.02 273 197 C182.91 197 92.82 197 0 197 C0 131.99 0 66.98 0 0 Z " fill="#3E887E" transform="translate(0,0)"/>
<path d="M0 0 C90.09 0 180.18 0 273 0 C273 65.01 273 130.02 273 197 C182.91 197 92.82 197 0 197 C0 131.99 0 66.98 0 0 Z M64 23 C55.99878384 32.97390259 52.60732142 43.85733458 52.875 56.5 C52.88402344 57.32242188 52.89304687 58.14484375 52.90234375 58.9921875 C52.92563135 60.99492083 52.96149041 62.99750154 53 65 C52.28457031 65.25910156 51.56914063 65.51820312 50.83203125 65.78515625 C38.83262998 70.93248562 31.1094222 80.58080991 26 92.3125 C22.45115759 102.40751794 22.68716466 113.17451797 27 123 C35.78812579 140.41646747 49.67185916 149.1407696 67.65234375 155.25683594 C75.12829898 157.62339248 82.88787857 159.58704912 90.6953125 160.37109375 C94.45293245 161.08619636 95.89831928 162.13196793 98.6875 164.6875 C112.65106079 176.56185628 129.21091038 179.4052079 147 178 C158.00854239 176.06964437 167.86544949 171.71338816 176.25 164.3125 C181.04133567 160.44225002 185.73052436 159.7841479 191.70703125 158.7890625 C209.97979657 155.647294 229.86607077 148.78153236 241.734375 133.8125 C249.5854154 122.61893745 252.42052539 111.55232181 251 98 C247.91447506 84.74954478 239.37051706 74.27142784 228 67 C226.02203863 66.27053907 224.02484089 65.5869104 222 65 C222.03480469 64.07960937 222.06960937 63.15921875 222.10546875 62.2109375 C222.44349597 46.40414089 219.85485799 31.65318385 208.74609375 19.62109375 C199.12622178 10.68989271 188.9054221 6.35741506 175.77856445 6.52709961 C170.05366377 6.77988031 165.81314637 7.96401537 161 11 C160.1853125 11.5053125 159.370625 12.010625 158.53125 12.53125 C155.45278696 14.51861222 152.59520821 16.40479179 150 19 C145.95982463 19.54005382 141.88457325 19.46329399 137.8125 19.5 C136.68779297 19.54125 135.56308594 19.5825 134.40429688 19.625 C125.07320247 19.71277044 125.07320247 19.71277044 120.94921875 16.109375 C120.21771606 15.31998535 120.21771606 15.31998535 119.47143555 14.51464844 C113.61908462 8.49042658 103.80626505 6.70815274 95.8125 6.5625 C81.88871643 6.83659023 73.10988622 13.17481902 64 23 Z " fill="#FCFCFD" transform="translate(0,0)"/>
<path d="M0 0 C8.18172009 5.01742236 13.87324457 12.56212281 16.17578125 21.93359375 C17.86061735 32.84248205 14.99551342 42.13845975 11.5625 52.4375 C12.8 52.788125 14.0375 53.13875 15.3125 53.5 C16.00859375 53.69722656 16.7046875 53.89445312 17.421875 54.09765625 C19.84494439 54.48234062 21.2067801 54.06310327 23.5625 53.4375 C25.68586079 53.34422575 27.81209732 53.30754568 29.9375 53.3125 C31.03835937 53.30992188 32.13921875 53.30734375 33.2734375 53.3046875 C36.5625 53.4375 36.5625 53.4375 39.765625 54.03515625 C43.49404421 54.57150706 45.39209362 53.32464666 48.5625 51.4375 C48.27375 50.95925781 47.985 50.48101562 47.6875 49.98828125 C44.5282793 43.70274841 44.12058506 37.78409639 44.0625 30.875 C44.04445313 29.98917236 44.02640625 29.10334473 44.0078125 28.19067383 C44.06480516 21.79027894 45.55881632 17.05891517 48.5625 11.4375 C49.119375 10.385625 49.67625 9.33375 50.25 8.25 C54.01622568 3.66945526 58.92878708 0.31540431 64.5625 -1.5625 C73.92707929 -2.35369022 81.31045269 -1.80165247 88.75 4.203125 C96.9038881 11.81741756 99.9767971 20.29192461 100.875 31.25 C100.55468727 41.27979236 97.44186987 50.45167115 90.4140625 57.6328125 C85.36882613 62.30929406 81.67458538 65.4375 74.5625 65.4375 C74.8925 66.4275 75.2225 67.4175 75.5625 68.4375 C75.63052967 70.16545352 75.64745645 71.89585365 75.625 73.625 C75.61597656 74.52605469 75.60695313 75.42710938 75.59765625 76.35546875 C75.58605469 77.04253906 75.57445312 77.72960937 75.5625 78.4375 C74.48738993 76.3214879 73.45634196 74.20095219 72.484375 72.03515625 C69.41261732 65.38992047 66.68569817 61.84269893 60.3125 58.125 C54.67876473 56.71656618 49.4266312 56.71801077 44 58.8125 C41.47076598 60.20751893 41.47076598 60.20751893 40.5625 62.4375 C39.9025 62.1075 39.2425 61.7775 38.5625 61.4375 C38.5625 60.7775 38.5625 60.1175 38.5625 59.4375 C35.48998989 58.54640078 32.69602607 58.27410276 29.5 58.25 C28.64277344 58.23582031 27.78554687 58.22164062 26.90234375 58.20703125 C24.29051691 58.27903915 24.29051691 58.27903915 21.5625 60.4375 C21.0675 61.4275 21.0675 61.4275 20.5625 62.4375 C19.44875 61.4784375 19.44875 61.4784375 18.3125 60.5 C13.56456112 56.93904584 8.35043396 56.75321224 2.5625 57.4375 C-2.90432034 59.20532942 -6.13317379 61.7037369 -9.4375 66.4375 C-10.43402628 68.67443925 -11.35061584 70.94856855 -12.1875 73.25 C-12.61546875 74.41144531 -13.0434375 75.57289062 -13.484375 76.76953125 C-13.79890625 77.64996094 -14.1134375 78.53039062 -14.4375 79.4375 C-14.7675 79.4375 -15.0975 79.4375 -15.4375 79.4375 C-15.464693 77.85426312 -15.48398306 76.27088938 -15.5 74.6875 C-15.51160156 73.80578125 -15.52320312 72.9240625 -15.53515625 72.015625 C-15.44576198 69.6556162 -15.10662821 67.69251476 -14.4375 65.4375 C-15.4275 65.39625 -16.4175 65.355 -17.4375 65.3125 C-23.70081326 64.4123072 -27.9696792 59.97203993 -32.1875 55.5625 C-39.75893019 45.04662474 -40.9025944 34.14560145 -39.4375 21.4375 C-36.70918802 12.27816694 -30.98748541 4.99895156 -22.875 0 C-16.07444193 -3.0622396 -6.80055807 -3.0622396 0 0 Z " fill="#1E3B35" transform="translate(107.4375,28.5625)"/>
<path d="M0 0 C3.59159187 2.37366389 6.95183814 4.95183814 10 8 C13.98948697 8.39550948 17.99370303 8.41869972 22 8.5 C23.11246094 8.55414063 24.22492188 8.60828125 25.37109375 8.6640625 C32.66216595 8.78429219 36.66366756 7.74152674 42.06103516 2.74560547 C49.13412173 -3.62213175 57.63642699 -4.53372223 66.72265625 -4.33203125 C77.992619 -3.72087281 87.28210428 2.04748025 95 10 C103.75257944 21.0181447 107.18580928 33.00355099 107.0625 46.9375 C107.05798828 47.62134766 107.05347656 48.30519531 107.04882812 49.00976562 C107.0371956 50.67321604 107.01926694 52.3366205 107 54 C107.88945312 54.2578125 108.77890625 54.515625 109.6953125 54.78125 C119.71882333 58.47786392 127.62984345 67.77628024 132.60546875 76.96484375 C137.12938977 87.21653031 137.92591491 98.30784605 134.3125 109 C127.67787015 124.51946633 116.73608567 134.06332921 101.34375 140.7421875 C91.73487708 144.35674016 81.74175252 147.75998788 71.5 148.8125 C65.35284662 149.64249539 61.66004481 152.91517524 56.9375 156.74609375 C52.60752617 160.06842739 48.09353258 162.11213545 43 164 C42.175 164.31839844 41.35 164.63679687 40.5 164.96484375 C29.79810138 168.50495351 15.71638861 168.6909675 5 165 C4.20722656 164.731875 3.41445312 164.46375 2.59765625 164.1875 C-4.79242984 161.45464844 -11.96316566 157.87103017 -17.71875 152.4296875 C-21.48889309 149.2386929 -25.47854231 148.78386876 -30.25 148.0625 C-49.16509822 144.69904213 -69.9978626 138.63927827 -81.93359375 122.36328125 C-89.27180083 111.18052492 -92.20502467 101.49347398 -91 88 C-87.43823051 73.43669016 -78.56604601 62.71914255 -66 55 C-64.67607892 54.63105303 -63.34339731 54.29012505 -62 54 C-62.03480469 52.81664062 -62.06960937 51.63328125 -62.10546875 50.4140625 C-62.44914344 33.93163351 -62.44914344 33.93163351 -59 26 C-58.67128906 25.1853125 -58.34257813 24.370625 -58.00390625 23.53125 C-52.94435946 12.18666067 -43.63268428 2.94548362 -32.4375 -2.375 C-21.9240376 -6.21863142 -9.92759836 -4.90006995 0 0 Z M-45.125 14 C-51.88519721 22.48338474 -56.26197678 32.4863247 -55.89453125 43.375 C-55.64077161 52.69146175 -55.64077161 52.69146175 -57 57 C-59.77142395 59.76259776 -62.29246514 61.00519806 -65.85546875 62.5859375 C-75.65342167 66.99197347 -80.5610628 76.902657 -84.375 86.4375 C-86.41812968 98.08333915 -84.46058071 107.59096836 -78.375 117.6875 C-67.14377886 133.32202868 -46.84997809 138.8182428 -29 143 C-26.90038455 143.34174343 -24.79679567 143.66173673 -22.6875 143.9375 C-17.86219129 144.6862548 -15.57605712 146.76429976 -12.15234375 150.125 C-2.8990812 158.18591838 10.16875469 161.58905279 22.1875 161.5 C23.09806152 161.49427979 24.00862305 161.48855957 24.94677734 161.48266602 C38.2744148 161.13452984 51.41484428 156.47044637 61.06640625 146.96484375 C65.59172693 143.93390327 70.53425907 143.23906937 75.8125 142.125 C93.92230308 138.02218119 112.78355855 133.09979011 124 117 C129.63471259 106.64393223 132.39199726 95.54897676 129.12890625 83.88671875 C123.51710127 70.87837081 114.57848121 63.09755112 102 57 C101.9906543 56.42145264 101.98130859 55.84290527 101.97167969 55.24682617 C101.86975603 39.63094785 101.86975603 39.63094785 97 25 C96.55398437 24.13246094 96.10796875 23.26492187 95.6484375 22.37109375 C89.78538057 11.85207984 82.45246764 5.81748921 71 2 C57.95418338 1.13801466 50.38481822 3.37452307 40 11 C39.34902344 11.70769531 38.69804687 12.41539063 38.02734375 13.14453125 C33.07441864 16.18019502 27.94338986 15.73731984 22.25 15.75 C21.10789062 15.79898437 19.96578125 15.84796875 18.7890625 15.8984375 C12.45771814 15.94210194 8.72759029 15.4284261 3.94140625 11.10546875 C3.27568604 10.39801514 2.60996582 9.69056152 1.92407227 8.96166992 C-3.55665744 3.3738431 -10.69066635 1.85747868 -18.25 1.75 C-28.91622775 1.86904272 -37.7269069 6.20839131 -45.125 14 Z " fill="#1F3B35" transform="translate(115,11)"/>
<path d="M0 0 C0.57621094 0.22816406 1.15242187 0.45632812 1.74609375 0.69140625 C0.75609375 1.02140625 -0.23390625 1.35140625 -1.25390625 1.69140625 C5.64131057 2.73344866 12.52283119 3.68976904 19.45996094 4.39453125 C42.51660986 6.7583056 42.51660986 6.7583056 52.74609375 12.69140625 C52.55859375 14.55859375 52.55859375 14.55859375 51.74609375 16.69140625 C49.55859375 17.88671875 49.55859375 17.88671875 46.74609375 18.81640625 C45.83859375 19.12835938 44.93109375 19.4403125 43.99609375 19.76171875 C14.83769697 28.10270245 -16.6462419 27.08215419 -46.69196701 27.06746674 C-49.35471978 27.0664158 -52.0174549 27.06874144 -54.6802063 27.0713501 C-130.05828555 27.09832156 -130.05828555 27.09832156 -142.03515625 17.22265625 C-143.25390625 15.69140625 -143.25390625 15.69140625 -143.25390625 13.69140625 C-141.81251986 10.80863348 -140.12380512 10.15486461 -137.25390625 8.69140625 C-134.5058314 7.8828104 -131.86186602 7.20677831 -129.06640625 6.62890625 C-128.25921143 6.4589917 -127.4520166 6.28907715 -126.62036133 6.11401367 C-116.19661952 4.08194496 -105.60589822 3.52492269 -95.02026367 2.92504883 C-92.16163284 2.72759186 -92.16163284 2.72759186 -89.00952148 2.10400391 C-86.25390625 1.69140625 -86.25390625 1.69140625 -84.55859375 2.6953125 C-84.08679688 3.20964844 -83.615 3.72398437 -83.12890625 4.25390625 C-71.64687431 15.22448911 -56.05072149 17.21756245 -40.90234375 16.96875 C-26.86269551 16.38976574 -14.60792183 10.05353959 -4.2265625 0.9140625 C-2.25390625 -0.30859375 -2.25390625 -0.30859375 0 0 Z " fill="#B0CFCF" transform="translate(183.25390625,160.30859375)"/>
<path d="M0 0 C0.95003906 -0.00773437 1.90007813 -0.01546875 2.87890625 -0.0234375 C5.77840496 0.42808749 6.6554046 1.10687858 8.4375 3.375 C5.7975 3.375 3.1575 3.375 0.4375 3.375 C5.6013709 15.14862566 13.636504 20.70406855 25.4375 25.375 C31.02294677 27.34224116 36.71156653 28.87771811 42.4375 30.375 C43.25605469 30.6225 44.07460937 30.87 44.91796875 31.125 C49.93578185 32.52261138 54.94825921 32.57400033 60.125 32.625 C60.85074219 32.63442627 61.57648438 32.64385254 62.32421875 32.65356445 C66.7761215 32.62645613 70.26808058 31.8441107 74.4375 30.375 C77.76364409 30.35724478 81.02932685 30.96300174 84.2265625 31.8984375 C95.82345402 34.39812083 107.36624318 31.74855099 118.4375 28.375 C119.4267749 28.08616943 119.4267749 28.08616943 120.43603516 27.79150391 C128.78126693 25.34015607 136.24863311 22.34007344 143.4375 17.375 C144.345 16.7975 145.2525 16.22 146.1875 15.625 C149.74093786 12.07156214 152.00958955 7.74690748 154.4375 3.375 C151.4675 3.375 148.4975 3.375 145.4375 3.375 C148.67702103 0.13547897 148.98811857 -0.05595333 153.25 -0.0625 C158.22301744 0.07563937 160.71246954 1.12753755 164.4375 4.375 C164.7675 5.035 165.0975 5.695 165.4375 6.375 C162.7975 5.715 160.1575 5.055 157.4375 4.375 C157.1075 5.695 156.7775 7.015 156.4375 8.375 C154.18498308 15.17545585 149.32069967 19.36929588 143.5625 23.375 C141.4375 24.375 141.4375 24.375 139.4375 24.375 C139.2828125 26.2003125 139.2828125 26.2003125 139.125 28.0625 C138.53015295 32.86376545 136.86736371 35.94513629 133.4375 39.375 C130.13615812 39.20124516 128.67507856 38.57405231 126.125 36.4375 C124.4375 34.375 124.4375 34.375 124.4375 32.375 C120.8075 33.035 117.1775 33.695 113.4375 34.375 C113.1075 36.025 112.7775 37.675 112.4375 39.375 C108.64465917 47.75085684 101.80616692 53.66190062 93.5546875 57.5859375 C82.86481904 61.56998442 71.56274768 62.13105706 60.9375 57.640625 C52.16105445 53.19754944 46.09660537 48.38879701 42.25 39.125 C40.79270232 36.01422995 40.14744392 34.68728546 36.96875 33.2890625 C33.76031359 32.65290701 30.70308708 32.375 27.4375 32.375 C27.025 31.92125 26.6125 31.4675 26.1875 31 C23.85610535 28.83513354 21.45921964 28.24794123 18.4375 27.375 C18.1075 29.025 17.7775 30.675 17.4375 32.375 C16.7775 32.375 16.1175 32.375 15.4375 32.375 C15.1075 29.735 14.7775 27.095 14.4375 24.375 C13.7775 24.189375 13.1175 24.00375 12.4375 23.8125 C4.11770473 19.82593143 -0.07294479 13.71302375 -3.5625 5.375 C-6.32526177 5.89768466 -8.8885876 6.48369587 -11.5625 7.375 C-9.22913703 1.73603949 -6.02482669 -0.04918226 0 0 Z " fill="#1C3832" transform="translate(60.5625,101.625)"/>
<path d="M0 0 C0.33 0 0.66 0 1 0 C1.79779285 10.57075522 -2.38792754 19.87394833 -9 28 C-21.32433449 41.7640932 -42.87509345 46.93905217 -60.390625 49.9609375 C-64.55620155 50.75763927 -67.18843187 52.07207257 -70.5 54.8125 C-81.16399084 63.09171652 -92.62072755 67.60052289 -106.1875 67.5 C-107.55334229 67.49141968 -107.55334229 67.49141968 -108.94677734 67.48266602 C-121.73389364 67.14864899 -132.83176098 62.82306858 -143 55 C-143.58136719 54.30777344 -144.16273438 53.61554688 -144.76171875 52.90234375 C-148.05618563 50.10233438 -151.4376912 49.82568699 -155.625 49.125 C-173.52853118 45.71619798 -195.41491959 40.15213088 -206.7109375 24.65234375 C-214.75897616 11.95214615 -214.75897616 11.95214615 -213.56640625 5.7421875 C-213.37949219 5.16726562 -213.19257813 4.59234375 -213 4 C-212.57589844 4.85722656 -212.15179688 5.71445313 -211.71484375 6.59765625 C-203.16959217 23.25620164 -189.86907927 31.67093755 -172.30712891 37.34277344 C-168.89012464 38.31616767 -165.42726355 39.01290641 -161.94995117 39.73486328 C-153.18073726 41.56853187 -147.38168982 43.31229982 -140.73828125 49.6484375 C-128.55836777 60.10822054 -113.62215882 63.0560043 -98 62 C-94.44587563 61.40262599 -91.3183318 60.39412342 -88 59 C-87.06929688 58.60941406 -86.13859375 58.21882813 -85.1796875 57.81640625 C-79.42861882 55.16610959 -74.95044953 52.16758084 -70.1875 48 C-63.74951122 42.57631801 -56.81722983 40.98758731 -48.7421875 39.11499023 C-35.72837259 36.09650816 -23.36449759 31.68587839 -13 23 C-12.34644531 22.45730469 -11.69289062 21.91460937 -11.01953125 21.35546875 C-4.90159657 15.78540882 -0.65876051 8.3442998 0 0 Z " fill="#337069" transform="translate(244,105)"/>
<path d="M0 0 C7.51031426 3.26029146 12.25434967 9.279924 15.265625 16.75 C18.51889569 27.00273188 16.63836797 35.46002469 12.828125 45.375 C10.828125 48.375 10.828125 48.375 8.4453125 49.10546875 C7.54039063 49.25628906 6.63546875 49.40710938 5.703125 49.5625 C4.79304688 49.72105469 3.88296875 49.87960938 2.9453125 50.04296875 C2.24664062 50.15253906 1.54796875 50.26210937 0.828125 50.375 C1.33472656 49.64796875 1.33472656 49.64796875 1.8515625 48.90625 C6.86773888 41.36748781 8.59645641 34.43416334 7.828125 25.375 C7.333125 23.89 7.333125 23.89 6.828125 22.375 C6.10625 23.2 5.384375 24.025 4.640625 24.875 C1.828125 27.375 1.828125 27.375 -0.859375 27.8125 C-3.171875 27.375 -3.171875 27.375 -5.171875 25.375 C-5.546875 22 -5.546875 22 -5.171875 18.375 C-3.171875 16.0625 -3.171875 16.0625 -1.171875 14.375 C-1.171875 13.715 -1.171875 13.055 -1.171875 12.375 C-4.41050603 10.75568448 -7.67110457 10.80783608 -11.171875 11.375 C-15.13236091 13.84096292 -18.05240763 16.56257032 -19.703125 21.0234375 C-21.30342838 29.05162614 -21.63475083 38.29595558 -17.171875 45.375 C-14.67228845 48.20959483 -14.67228845 48.20959483 -12.171875 50.375 C-11.676875 50.87 -11.676875 50.87 -11.171875 51.375 C-9.82440416 51.60575082 -8.46809935 51.78653063 -7.109375 51.9375 C-5.81 52.081875 -4.510625 52.22625 -3.171875 52.375 C-5.151875 54.85 -5.151875 54.85 -7.171875 57.375 C-13.87321331 56.7212109 -18.81984907 54.09825943 -23.359375 49.25 C-30.23681251 40.5103073 -31.33470167 31.28399252 -30.171875 20.375 C-28.21009663 12.41180496 -22.62971311 5.42581689 -15.859375 0.875 C-10.44855293 -1.32601237 -5.64276359 -1.62381686 0 0 Z " fill="#F3F5F5" transform="translate(103.171875,32.625)"/>
<path d="M0 0 C6.59203847 3.32508466 10.80289112 8.95113107 13.5546875 15.7265625 C16.02495431 25.35782747 14.99370096 35.70573187 10.25 44.4375 C6.46083388 50.11645277 1.88893371 54.43461494 -4.75 56.4375 C-8.34913556 56.4375 -9.37196364 55.77466756 -12.0625 53.375 C-12.619375 52.735625 -13.17625 52.09625 -13.75 51.4375 C-13.08613281 51.35113281 -12.42226562 51.26476562 -11.73828125 51.17578125 C-5.89622159 50.24616884 -2.45392498 49.37606664 1.25 44.4375 C4.01867559 39.59231772 5.3899125 35.49571981 5.4375 29.9375 C5.45167969 29.1846875 5.46585938 28.431875 5.48046875 27.65625 C5.22417278 25.18885827 4.47845153 23.57393744 3.25 21.4375 C2.693125 22.2625 2.13625 23.0875 1.5625 23.9375 C-0.75 26.4375 -0.75 26.4375 -3.3125 26.9375 C-5.75 26.4375 -5.75 26.4375 -7.625 25.375 C-9.45023223 22.23154449 -8.60346115 19.85134459 -7.75 16.4375 C-6.3125 14.5 -6.3125 14.5 -4.75 13.4375 C-4.09 13.4375 -3.43 13.4375 -2.75 13.4375 C-3.740755 11.77108994 -3.740755 11.77108994 -5.75 10.4375 C-10.8076271 9.77420464 -12.72802502 9.78189341 -17.0625 12.5625 C-22.38507497 18.25641741 -24.11468921 24.24628598 -24.0390625 31.859375 C-23.31556248 38.31221305 -20.83898328 44.41121396 -16.75 49.4375 C-25.59168734 48.76256203 -25.59168734 48.76256203 -28.26953125 45.69921875 C-32.79018566 36.70870379 -33.19456428 25.17299849 -31.1015625 15.4140625 C-28.53251776 8.27782712 -24.09653908 3.74289359 -17.9375 -0.5 C-11.80040547 -2.54569818 -6.03197622 -2.35989626 0 0 Z " fill="#F4F6F5" transform="translate(187.75,33.5625)"/>
<path d="M0 0 C0.99 0.66 1.98 1.32 3 2 C2.67 2.99 2.34 3.98 2 5 C1.34 5 0.68 5 0 5 C-1.16461426 8.49384279 -1.13568319 11.33655389 -1 15 C0.03632739 16.23007345 0.03632739 16.23007345 2.25 16.375 C6.10613052 15.84916402 7.50125936 13.85570359 10 11 C13.30406248 16.87096361 12.51396314 22.78318283 10.8125 29.125 C9.04153672 34.48801145 6.61066357 38.83945084 2.1875 42.5 C-2.00054231 43.45726681 -6.02995867 43.14147809 -9.74609375 40.98828125 C-14.1852782 37.47900078 -16.93053824 33.5255524 -18 28 C-18.65889338 18.62427119 -18.89927748 10.88493094 -12.6796875 3.4140625 C-8.60370172 -0.61737699 -5.37338392 -0.61661783 0 0 Z " fill="#1F3C37" transform="translate(100,43)"/>
<path d="M0 0 C0.66 0 1.32 0 2 0 C-1.98534309 11.29180541 -10.61010896 16.98909837 -21 22 C-24.84512073 23.43741256 -28.74514427 24.61047268 -32.6875 25.75 C-33.69361328 26.05292969 -34.69972656 26.35585937 -35.73632812 26.66796875 C-43.23560034 28.89253862 -50.08920152 30.18007493 -57.9375 30.1875 C-58.61490234 30.19974609 -59.29230469 30.21199219 -59.99023438 30.22460938 C-64.67205626 30.23807579 -68.53921903 29.32487866 -73 28 C-76.81379827 27.98080303 -80.38215095 28.79405032 -84 30 C-105.00409266 31.4659607 -128.72639904 26.15184946 -145.0234375 12.27734375 C-148.72917061 8.83630586 -150.8849182 6.07981708 -152 1 C-151.030625 1.86625 -150.06125 2.7325 -149.0625 3.625 C-139.681667 11.62796417 -129.66800855 18 -117 18 C-116.37738281 18.62390625 -115.75476563 19.2478125 -115.11328125 19.890625 C-109.8596865 25.13450885 -101.48114323 25.21815774 -94.4375 25.375 C-88.86955682 25.27880586 -84.29855032 24.43839549 -79.0703125 22.609375 C-75.0046878 21.41270056 -71.73107823 22.7623318 -67.83984375 24.02734375 C-63.68584334 25.07957783 -60.01055379 25.38420415 -55.75 25.375 C-55.00854736 25.37411377 -54.26709473 25.37322754 -53.50317383 25.37231445 C-46.3929586 25.22027794 -39.65040382 23.83920297 -33.92578125 19.38671875 C-31.47470423 17.62174442 -29.34612455 17.70550812 -26.40625 17.42578125 C-17.84770035 15.91136256 -8.06166914 11.33854117 -2.6953125 4.28515625 C-1.78095865 2.86690667 -0.88819512 1.43477673 0 0 Z " fill="#327169" transform="translate(213,105)"/>
<path d="M0 0 C0.680625 -0.00515625 1.36125 -0.0103125 2.0625 -0.015625 C4 0.25 4 0.25 7 2.25 C7 2.91 7 3.57 7 4.25 C6.175 5.013125 5.35 5.77625 4.5 6.5625 C1.78919983 8.97847219 1.78919983 8.97847219 1.5625 11.9375 C1.81026503 14.43582291 1.81026503 14.43582291 4 16.25 C6.37124598 16.83488562 6.37124598 16.83488562 9 16.25 C11.81331378 13.85416349 11.81331378 13.85416349 14 11.25 C15.26237731 13.77475462 15.09856404 15.56200466 15.0625 18.375 C15.05347656 19.28507812 15.04445312 20.19515625 15.03515625 21.1328125 C15.02355469 21.83148438 15.01195312 22.53015625 15 23.25 C12.69 23.25 10.38 23.25 8 23.25 C7.9071875 25.10625 7.9071875 25.10625 7.8125 27 C7.39113175 30.34720697 7.11468905 31.12256772 4.75 33.75 C1.79391702 35.3624089 0.30350357 35.78570328 -3 35.25 C-6.00617269 32.24382731 -5.59585316 29.42618402 -6 25.25 C-9.65316671 26.49976756 -10.78065836 26.92098753 -13 30.25 C-15.67087091 25.07518761 -15.80474754 19.7078996 -14.5 14.1015625 C-12.24674373 7.41860923 -7.8040287 -0.05912143 0 0 Z " fill="#1E3934" transform="translate(178,42.75)"/>
<path d="M0 0 C2.59437723 1.91592131 5.08626282 3.9179212 7.49780273 6.05957031 C11.90680131 8.89197726 17.34060842 8.14354514 22.43359375 8.19140625 C24.15352539 8.27165039 24.15352539 8.27165039 25.90820312 8.35351562 C32.25992604 8.42259561 36.00349576 7.95520157 40.80859375 3.61328125 C41.47375 2.90526367 42.13890625 2.19724609 42.82421875 1.46777344 C48.40620415 -4.23617607 55.68353504 -5.6466607 63.37109375 -5.80859375 C74.33968859 -5.67233791 80.7181985 -2.26064033 88.60546875 5.2421875 C91.08241366 7.85925156 92.97959369 10.37238341 94.74609375 13.50390625 C94.41609375 14.16390625 94.08609375 14.82390625 93.74609375 15.50390625 C93.34519531 14.99601562 92.94429687 14.488125 92.53125 13.96484375 C85.23952019 5.13540222 76.92597697 -0.39816752 65.39453125 -1.77734375 C56.88819637 -2.12812045 49.38074709 1.33180174 42.74609375 6.50390625 C40.22788246 9.03237502 37.96788323 11.71401363 35.74609375 14.50390625 C34.94171875 15.49390625 34.13734375 16.48390625 33.30859375 17.50390625 C32.79296875 18.16390625 32.27734375 18.82390625 31.74609375 19.50390625 C32.62109375 13.75390625 32.62109375 13.75390625 33.74609375 11.50390625 C26.15609375 11.50390625 18.56609375 11.50390625 10.74609375 11.50390625 C11.40609375 12.82390625 12.06609375 14.14390625 12.74609375 15.50390625 C12.25109375 16.98890625 12.25109375 16.98890625 11.74609375 18.50390625 C11.10994141 17.63378906 11.10994141 17.63378906 10.4609375 16.74609375 C3.51470723 7.49463102 -3.64062455 0.97732325 -15.25390625 -1.49609375 C-24.48439335 -2.23453272 -33.0038656 0.88173336 -40.25390625 6.50390625 C-42.70487359 8.73433665 -44.99017153 11.08543524 -47.25390625 13.50390625 C-48.58723958 14.83723958 -49.92057292 16.17057292 -51.25390625 17.50390625 C-47.99812345 8.27918832 -41.64521868 1.57853728 -33.00390625 -2.87109375 C-22.18796609 -8.01090002 -9.83172763 -6.52608611 0 0 Z " fill="#63A096" transform="translate(115.25390625,18.49609375)"/>
<path d="M0 0 C3.26999398 2.71339926 4.65417245 4.26523905 5.48046875 8.41015625 C5.71827734 12.6714291 5.490303 16.04285467 2.9375 19.5625 C-0.65246842 22.54140997 -2.33211604 23.32192303 -7 23 C-10.32513856 20.9349834 -13.23461629 18.53076742 -15 15 C-15.39771327 10.22744077 -15.47453429 7.91517328 -13.25 3.625 C-9.09697457 -1.22019633 -6.25212967 -1.75498377 0 0 Z " fill="#193731" transform="translate(165,94)"/>
<path d="M0 0 C4.05002295 3.51001989 5.86552398 5.38628774 6.3125 10.75 C6.25654643 15.14635228 4.88670044 17.63218282 2 21 C-0.52895899 22.93886856 -1.72955988 23.00575405 -4.9375 22.9375 C-8.75683706 21.76831519 -10.43196498 20.0082696 -13 17 C-14.74348951 13.51302098 -14.58082725 9.80409937 -14 6 C-10.74783401 -0.07740672 -6.57138366 -1.83998743 0 0 Z " fill="#193732" transform="translate(119,94)"/>
<path d="M0 0 C0.99 0.66 1.98 1.32 3 2 C5.63434254 1.67873872 7.62710097 1.18644952 10 0 C16.49632312 -0.56002785 20.43122058 0.68242928 26 4 C20.91847273 9.49603251 14.1466608 10.67529357 6.95703125 11.23828125 C-0.95436233 11.42500979 -9.63629426 10.95755997 -15.8046875 5.36328125 C-16.39636719 4.68845703 -16.39636719 4.68845703 -17 4 C-11.41154934 0.11238215 -6.80915776 -1.02375449 0 0 Z " fill="#E97378" transform="translate(133,147)"/>
<path d="M0 0 C0.33 0 0.66 0 1 0 C1.37915476 7.96224999 0.62312184 14.94151831 -4.375 21.4375 C-8.1879997 25.15971399 -11.23558105 26.10219408 -16.4375 26.625 C-19.43064397 26.57503099 -20.60601416 26.34565909 -22.87890625 24.3515625 C-25.37635444 21.11390677 -27.41825308 18.114384 -28 14 C-26.8125 11.25 -26.8125 11.25 -25 9 C-23.68 9 -22.36 9 -21 9 C-20.01 11.97 -19.02 14.94 -18 18 C-14.59919423 17.89592083 -14.59919423 17.89592083 -11 17 C-8.41827177 13.90192613 -7.56494937 10.95464558 -7 7 C-4.69 7 -2.38 7 0 7 C0 4.69 0 2.38 0 0 Z " fill="#3A7A70" transform="translate(193,59)"/>
<path d="M0 0 C1.99954746 -0.04254356 4.00041636 -0.04080783 6 0 C6.33 0.33 6.66 0.66 7 1 C6.69968319 6.90623056 5.78185361 10.27268299 2 15 C0.9171875 16.4540625 0.9171875 16.4540625 -0.1875 17.9375 C-3.21605671 20.15844159 -3.86402183 20.33485191 -7.4375 20.125 C-13.34210795 19.08358828 -16.18430177 16.15614165 -20 11.625 C-21.41414332 7.91287378 -20.35223289 5.62967777 -19 2 C-17.33388095 1.957279 -15.66617115 1.95936168 -14 2 C-12.03177114 3.96822886 -12.33751619 7.34808709 -12 10 C-8.70054409 10.9363921 -8.70054409 10.9363921 -5 11 C-1.30682879 7.79277237 -0.44493858 4.78308974 0 0 Z " fill="#3C7A72" transform="translate(104,66)"/>
<path d="M0 0 C4.97301744 0.13813937 7.46246954 1.19003755 11.1875 4.4375 C11.5175 5.0975 11.8475 5.7575 12.1875 6.4375 C9.5475 5.7775 6.9075 5.1175 4.1875 4.4375 C3.8575 5.7575 3.5275 7.0775 3.1875 8.4375 C0.37842533 16.85147367 -6.27200337 21.44547237 -13.8125 25.4375 C-15.67109339 27.03922474 -15.67109339 27.03922474 -16.8125 28.4375 C-17.8025 26.7875 -18.7925 25.1375 -19.8125 23.4375 C-18.81669922 22.85742188 -18.81669922 22.85742188 -17.80078125 22.265625 C-8.80125951 16.95787787 -3.91428643 12.62422196 1.1875 3.4375 C-1.7825 3.4375 -4.7525 3.4375 -7.8125 3.4375 C-4.57297897 0.19797897 -4.26188143 0.00654667 0 0 Z " fill="#1A3832" transform="translate(213.8125,101.5625)"/>
<path d="M0 0 C5.51827996 3.13784547 7.50830763 6.79539401 9.1875 12.8125 C8.75179687 12.41417969 8.31609375 12.01585938 7.8671875 11.60546875 C2.48437168 6.81685987 -2.1231999 3.14048927 -9.7265625 3.4609375 C-14.77075011 4.31108148 -18.6653335 6.53787056 -22.0625 10.3125 C-22.92875 11.55 -22.92875 11.55 -23.8125 12.8125 C-25.12744512 14.16397138 -26.45514858 15.50362542 -27.8125 16.8125 C-27.27144801 11.13145411 -25.52382237 7.11002146 -21.09765625 3.359375 C-14.32430213 -1.62398067 -8.06943652 -2.51343105 0 0 Z " fill="#5E9E94" transform="translate(122.8125,86.1875)"/>
<path d="M0 0 C4.58573824 2.61377778 8.87349663 6.49161886 10.41015625 11.65625 C10.52230469 12.2440625 10.63445312 12.831875 10.75 13.4375 C7.75 13.4375 7.75 13.4375 6.06640625 11.7578125 C5.48761719 11.03335938 4.90882813 10.30890625 4.3125 9.5625 C1.379059 5.90062063 -0.80893587 3.79452639 -5.546875 3.1015625 C-12.45245708 2.991601 -17.5471928 4.25723007 -22.85546875 8.81640625 C-24.03522102 9.97633075 -25.15083613 11.20094064 -26.25 12.4375 C-24.375 6.6875 -24.375 6.6875 -23.25 4.4375 C-22.59 4.4375 -21.93 4.4375 -21.25 4.4375 C-20.92 3.4475 -20.59 2.4575 -20.25 1.4375 C-14.13567944 -2.79549116 -6.71970415 -2.98653518 0 0 Z " fill="#5D9E93" transform="translate(169.25,86.5625)"/>
<path d="M0 0 C6.19445098 0.31766415 10.17928926 3.436489 15 7 C15.57234375 7.41636719 16.1446875 7.83273438 16.734375 8.26171875 C23.13352606 13.22600862 26.73448493 19.32242115 29 27 C28.5703125 29.23828125 28.5703125 29.23828125 28 31 C27.36384766 29.71416016 27.36384766 29.71416016 26.71484375 28.40234375 C20.05763795 15.42445024 12.62532871 9.74168038 0 3 C0 2.01 0 1.02 0 0 Z " fill="#61A095" transform="translate(215,69)"/>
<path d="M0 0 C0 0.99 0 1.98 0 3 C-0.70125 3.35191406 -1.4025 3.70382813 -2.125 4.06640625 C-13.42973384 9.94916856 -22.11908163 17.01310341 -26.87890625 29.26171875 C-27.50512902 31.31890615 -27.50512902 31.31890615 -28 34 C-28.33 34 -28.66 34 -29 34 C-28.68103669 24.27161896 -24.91298648 16.76945723 -18.25 9.6875 C-13.08588004 4.87096504 -7.24015541 0 0 0 Z " fill="#62A094" transform="translate(60,69)"/>
<path d="M0 0 C4.3890815 0.51035831 7.33708062 1.52214277 11 4 C10.67226629 7.03153686 10.35865103 8.61573103 8.25 10.875 C6 12 6 12 3.4375 11.9375 C0.37279215 10.75876621 -0.65208171 10.01299383 -2 7 C-1.1875 3.25 -1.1875 3.25 0 0 Z " fill="#23403C" transform="translate(79,129)"/>
<path d="M0 0 C0.99 0.66 1.98 1.32 3 2 C5.63434254 1.67873872 7.62710097 1.18644952 10 0 C16.49632312 -0.56002785 20.43122058 0.68242928 26 4 C25.34 4.66 24.68 5.32 24 6 C22.845 5.484375 21.69 4.96875 20.5 4.4375 C15.02729228 2.37433762 10.87542817 3.28114296 5.25 4.6875 C2.44078629 5.07766857 1.49968826 4.24984413 -1 3 C-6.80054859 2.44225494 -10.74704929 3.78823128 -16 6 C-16 5.01 -16 4.02 -16 3 C-10.81168687 -0.27682935 -5.98980693 -0.79382983 0 0 Z " fill="#C54F58" transform="translate(133,147)"/>
<path d="M0 0 C2.86019506 1.60074783 5.08862664 3.28006884 7.3125 5.6875 C6.9825 6.6775 6.6525 7.6675 6.3125 8.6875 C5.86519531 8.27757812 5.41789062 7.86765625 4.95703125 7.4453125 C4.35246094 6.90648437 3.74789062 6.36765625 3.125 5.8125 C2.53332031 5.27882813 1.94164062 4.74515625 1.33203125 4.1953125 C-4.91792207 -0.47099694 -12.21467654 -0.12620744 -19.6875 0.6875 C-25.51628739 2.72589096 -30.13959466 6.60604649 -34.6875 10.6875 C-34.6875 7.6875 -34.6875 7.6875 -33.4375 6.22265625 C-23.49416888 -2.14483445 -12.60817316 -6.0917967 0 0 Z " fill="#337169" transform="translate(108.6875,27.3125)"/>
<path d="M0 0 C5.76004132 2.61498809 10.83791654 6.61876934 14.046875 12.15625 C13.716875 13.14625 13.386875 14.13625 13.046875 15.15625 C12.41072266 14.35960937 12.41072266 14.35960937 11.76171875 13.546875 C7.10767826 7.94156909 3.05752599 4.49313366 -3.953125 2.15625 C-12.20171916 1.45934662 -18.73026318 1.97557546 -25.953125 6.15625 C-24.91622383 3.14923662 -24.00051723 2.18673623 -21.28125 0.4375 C-14.57931904 -2.1425861 -6.87911737 -1.96546211 0 0 Z " fill="#326F68" transform="translate(188.953125,25.84375)"/>
<path d="M0 0 C-1.65 3.3 -3.3 6.6 -5 10 C-6.32 10 -7.64 10 -9 10 C-12 4.375 -12 4.375 -12 1 C-7.89864774 0.35665063 -4.17263102 0 0 0 Z " fill="#E5E7E8" transform="translate(170,137)"/>
<path d="M0 0 C3.63 0.33 7.26 0.66 11 1 C10.38461538 7.52307692 10.38461538 7.52307692 8.4375 9.9375 C7.963125 10.288125 7.48875 10.63875 7 11 C3.66428571 9.88809524 3.41582921 9.53679327 1.8125 6.625 C1.46832031 6.01914063 1.12414062 5.41328125 0.76953125 4.7890625 C0 3 0 3 0 0 Z " fill="#E8EAEA" transform="translate(106,137)"/>
<path d="M0 0 C0.61875 0.33 1.2375 0.66 1.875 1 C1.545 1.99 1.215 2.98 0.875 4 C-4.735 4 -10.345 4 -16.125 4 C-16.455 3.01 -16.785 2.02 -17.125 1 C-11.81635442 -2.08955816 -5.7477439 -1.83927805 0 0 Z " fill="#5E9C91" transform="translate(145.125,87)"/>
<path d="M0 0 C1 3 1 3 -0.4375 6.1875 C-1.2109375 7.5796875 -1.2109375 7.5796875 -2 9 C-4.375 8.75 -4.375 8.75 -7 8 C-7.66 6.68 -8.32 5.36 -9 4 C-6.03 2.68 -3.06 1.36 0 0 Z " fill="#E6E9EA" transform="translate(196,128)"/>
<path d="M0 0 C3.73487777 0.4979837 5.81237635 0.87491756 9 3 C8.25 4.9375 8.25 4.9375 7 7 C4.875 7.75 4.875 7.75 3 8 C0.37613513 4.93882432 0 4.26826873 0 0 Z " fill="#E8ECED" transform="translate(79,129)"/>
<path d="M0 0 C1.32 0 2.64 0 4 0 C4.38063221 2.3260857 4.71269945 4.66055264 5 7 C4 8 4 8 1.4375 8.0625 C0.633125 8.041875 -0.17125 8.02125 -1 8 C-1.625 5.125 -1.625 5.125 -2 2 C-1.34 1.34 -0.68 0.68 0 0 Z " fill="#EBF0F0" transform="translate(168,68)"/>
<path d="M0 0 C1.66611905 -0.042721 3.33382885 -0.04063832 5 0 C6 1 6 1 6.125 4 C6 7 6 7 5 8 C3.33382885 8.04063832 1.66611905 8.042721 0 8 C0 5.36 0 2.72 0 0 Z " fill="#F5F7F7" transform="translate(85,68)"/>
<path d="M0 0 C0.33 0.66 0.66 1.32 1 2 C-3.74515678 7.17653467 -8.77150965 11.12381935 -16 12 C-16 11.01 -16 10.02 -16 9 C-15.14728516 8.77957031 -15.14728516 8.77957031 -14.27734375 8.5546875 C-8.30948843 6.82112018 -4.39721485 4.36893695 0 0 Z " fill="#307168" transform="translate(198,85)"/>
<path d="M0 0 C0.74765625 0.42152344 1.4953125 0.84304687 2.265625 1.27734375 C3.74289063 2.09912109 3.74289063 2.09912109 5.25 2.9375 C6.22453125 3.48277344 7.1990625 4.02804688 8.203125 4.58984375 C10.53610409 5.76610835 12.45350762 6.52101691 15 7 C14.67 8.32 14.34 9.64 14 11 C14 10.34 14 9.68 14 9 C12.7625 8.9071875 12.7625 8.9071875 11.5 8.8125 C7.12742978 7.79743906 3.39380038 5.98034247 0 3 C0 2.01 0 1.02 0 0 Z " fill="#36746C" transform="translate(78,87)"/>
<path d="M0 0 C0.93423645 3.01031744 1.04449911 3.86650268 0 7 C-2.0625 8.1875 -2.0625 8.1875 -4 9 C-2.94124926 5.59687262 -1.99097846 2.98646769 0 0 Z " fill="#25423B" transform="translate(199,127)"/>
<path d="M0 0 C6.52307692 -0.36923077 6.52307692 -0.36923077 8.9375 1.5 C9.288125 1.995 9.63875 2.49 10 3 C8 4 8 4 6.0546875 3.44140625 C5.33539063 3.15136719 4.61609375 2.86132812 3.875 2.5625 C3.15054688 2.27503906 2.42609375 1.98757812 1.6796875 1.69140625 C0.84824219 1.34916016 0.84824219 1.34916016 0 1 C0 0.67 0 0.34 0 0 Z " fill="#C8555F" transform="translate(149,149)"/>
</svg>
